<svg viewBox="0 0 60.7 37.2" height="100%" width="100%" version="1.1" xmlns="http://www.w3.org/2000/svg" xmlns:xlink="http://www.w3.org/1999/xlink" >
    <path d="M60.2,7.1L47.8,33.9c0,0,0,0,0,0l-0.2,0.4c-0.9,1.8-2.7,2.9-4.5,2.9c-0.7,0-1.4-0.1-2.1-0.5c-0.1-0.1-0.2-0.1-0.3-0.2
		c-0.1-0.1-0.2-0.1-0.3-0.2c-0.5-0.4-1-0.8-1.4-1.4c-0.1-0.1-0.1-0.2-0.2-0.3s-0.1-0.2-0.2-0.3L38.4,34l0-0.1l-8-17.1l-8,17.1
		c0,0,0,0,0,0l-0.2,0.4c-0.9,1.8-2.7,2.9-4.6,2.9c-0.7,0-1.4-0.1-2.1-0.5c-0.1-0.1-0.2-0.1-0.3-0.2s-0.2-0.1-0.3-0.2
		c-0.5-0.4-1-0.8-1.4-1.4c-0.1-0.1-0.1-0.2-0.2-0.3s-0.1-0.2-0.2-0.3L13,34l0-0.1L0.5,7.1c-1.2-2.5-0.1-5.5,2.4-6.6
		c2.5-1.2,5.5-0.1,6.6,2.4l8.1,17.4l8.1-17.5c0.7-1.5,2.1-2.5,3.6-2.8c0,0,0,0,0.1,0c0.2,0,0.4-0.1,0.6-0.1c0.2,0,0.4,0,0.6,0
		c0,0,0,0,0,0c0.1,0,0.2,0,0.3,0c0.3,0,0.7,0.1,1,0.2c0.1,0.1,0.3,0.1,0.4,0.2c0.5,0.2,0.9,0.5,1.3,0.8c0.1,0.1,0.1,0.1,0.2,0.2
		c0.2,0.2,0.4,0.4,0.5,0.6c0,0.1,0.1,0.2,0.1,0.2c0.1,0.1,0.2,0.2,0.2,0.4c0,0.1,0.1,0.1,0.1,0.2L43,20.3l8.1-17.5
		c1.2-2.5,4.1-3.6,6.7-2.4C60.3,1.6,61.4,4.6,60.2,7.1z" fill="#315AFF"/>
</svg>
